<svg width="241" height="241" viewBox="0 0 241 241" fill="none" xmlns="http://www.w3.org/2000/svg">
<rect width="241" height="241" rx="120.5" fill="white"/>
<g filter="url(#filter0_dd_48_44)">
<path d="M60.68 120H59.9L65.12 78H67.1L79.7 116.82L92.24 78H94.22L99.44 120H94.46L90.32 86.4L79.46 120H75.68L64.7 86.82L60.68 120ZM106.157 120H105.437L123.377 78L124.037 77.7L139.157 120H134.057L129.377 106.8H111.857L106.157 120ZM121.517 84.48L112.097 106.2H129.197L121.517 84.48ZM144.575 78.48C149.215 78.16 153.315 78 156.875 78C166.755 78 171.695 81.3 171.695 87.9C171.695 90.7 171.015 93.2 169.655 95.4C168.295 97.6 165.955 99.06 162.635 99.78L174.635 120H169.055L157.295 100.14H149.555V120H144.575V78.48ZM156.875 78.6C154.555 78.6 152.115 78.74 149.555 79.02V99.54H158.435C164.075 99.3 166.895 95.46 166.895 88.02C166.895 84.98 166.055 82.66 164.375 81.06C162.695 79.42 160.195 78.6 156.875 78.6Z" fill="black"/>
<path d="M92.9067 132.531C92.9067 132.651 92.8887 132.76 92.8525 132.856C92.8285 132.94 92.7983 133.031 92.7622 133.127C92.5575 133.609 92.3407 134.084 92.1118 134.554C91.895 135.012 91.7144 135.5 91.5698 136.018C91.1965 137.379 90.8953 138.794 90.6665 140.263C90.4497 141.721 90.2931 143.22 90.1968 144.762C91.1724 144.786 92.1961 144.906 93.2681 145.123C94.34 145.34 95.3818 145.659 96.3936 146.081C97.1523 145.623 97.8449 145.093 98.4712 144.491C99.1095 143.889 99.6515 143.22 100.097 142.485C100.555 141.751 100.904 140.962 101.145 140.119C101.398 139.276 101.512 138.39 101.488 137.463C101.488 136.078 101.247 134.837 100.766 133.741C100.296 132.645 99.6636 131.718 98.8687 130.959C98.0858 130.2 97.1885 129.622 96.1768 129.225C95.165 128.815 94.1232 128.61 93.0513 128.61C92.3045 128.61 91.5277 128.749 90.7207 129.026C89.9137 129.303 89.179 129.688 88.5166 130.182C87.8542 130.676 87.3062 131.272 86.8726 131.971C86.451 132.669 86.2402 133.44 86.2402 134.283C86.2402 134.608 86.2764 134.903 86.3486 135.168C86.4329 135.433 86.5173 135.674 86.6016 135.891C86.6979 136.108 86.7822 136.313 86.8545 136.505C86.9388 136.686 86.981 136.867 86.981 137.047C86.981 137.397 86.8605 137.692 86.6196 137.933C86.3908 138.161 86.1077 138.276 85.7705 138.276C85.4574 138.276 85.2104 138.192 85.0298 138.023C84.8491 137.854 84.7046 137.644 84.5962 137.391C84.4998 137.138 84.4336 136.873 84.3975 136.596C84.3734 136.307 84.3613 136.054 84.3613 135.837C84.3613 134.777 84.6082 133.819 85.1021 132.964C85.6079 132.097 86.2643 131.326 87.0713 130.652C87.5771 130.218 88.083 129.839 88.5889 129.514C89.1068 129.176 89.6367 128.899 90.1787 128.683C90.7207 128.454 91.2868 128.285 91.877 128.177C92.4792 128.056 93.1175 127.996 93.792 127.996C95.418 127.996 96.8813 128.237 98.1821 128.719C99.4829 129.188 100.585 129.839 101.488 130.67C102.392 131.489 103.084 132.446 103.566 133.542C104.06 134.639 104.307 135.807 104.307 137.047C104.307 138.192 104.132 139.251 103.783 140.227C103.433 141.191 102.958 142.076 102.355 142.883C101.753 143.678 101.043 144.388 100.224 145.015C99.4046 145.641 98.5194 146.183 97.5679 146.641C98.1821 146.978 98.7482 147.363 99.2661 147.797C99.7961 148.218 100.254 148.7 100.639 149.242C101.025 149.772 101.326 150.356 101.542 150.995C101.759 151.633 101.868 152.326 101.868 153.072C101.868 153.891 101.705 154.662 101.38 155.385C101.055 156.119 100.615 156.764 100.061 157.318C99.507 157.884 98.8626 158.33 98.1279 158.655C97.4053 158.98 96.6405 159.143 95.8335 159.143C95.3638 159.143 94.87 159.052 94.3521 158.872C93.8341 158.703 93.3403 158.474 92.8706 158.185C92.4009 157.896 91.9673 157.565 91.5698 157.191C91.1724 156.818 90.8532 156.433 90.6123 156.035L90.8652 155.818C91.4795 156.336 92.1781 156.752 92.9609 157.065C93.7559 157.39 94.5508 157.553 95.3457 157.553C95.96 157.456 96.508 157.24 96.9897 156.902C97.4836 156.565 97.8991 156.15 98.2363 155.656C98.5736 155.174 98.8265 154.638 98.9951 154.048C99.1758 153.47 99.2661 152.886 99.2661 152.295C99.2661 151.103 99.0011 150.085 98.4712 149.242C97.9533 148.399 97.2788 147.701 96.4478 147.146C95.4119 147.556 94.3521 147.863 93.2681 148.068C92.1841 148.273 91.1121 148.387 90.0522 148.411C90.0282 150.314 90.0522 152.181 90.1245 154.012C90.2088 155.854 90.3112 157.601 90.4316 159.251L90.0884 159.359C89.7873 158.564 89.5283 157.715 89.3115 156.812C89.0947 155.909 88.9141 154.981 88.7695 154.03C88.625 153.078 88.5046 152.121 88.4082 151.157C88.3239 150.182 88.2637 149.224 88.2275 148.285C87.9385 148.236 87.6434 148.17 87.3423 148.086C87.0532 147.99 86.7882 147.875 86.5474 147.743C86.3185 147.598 86.1318 147.43 85.9873 147.237C85.8428 147.044 85.7705 146.809 85.7705 146.532C85.7705 146.255 85.8368 146.02 85.9692 145.828C86.1138 145.635 86.3005 145.472 86.5293 145.34C86.7581 145.195 87.0171 145.087 87.3062 145.015C87.5952 144.93 87.8843 144.87 88.1733 144.834C88.1733 144.328 88.1794 143.708 88.1914 142.973C88.2035 142.238 88.2336 141.462 88.2817 140.643C88.342 139.812 88.4263 138.974 88.5347 138.131C88.6551 137.276 88.8237 136.475 89.0405 135.729C89.2573 134.982 89.5283 134.319 89.8535 133.741C90.1787 133.163 90.5822 132.736 91.064 132.458C91.2446 132.35 91.4434 132.254 91.6602 132.169C91.877 132.073 92.1058 132.025 92.3467 132.025C92.7201 132.025 92.9067 132.194 92.9067 132.531ZM90.0703 147.923C91.0098 147.911 91.9372 147.791 92.8525 147.562C93.7799 147.333 94.6592 147.008 95.4902 146.586C94.6833 146.189 93.8161 145.894 92.8887 145.701C91.9733 145.496 91.064 145.37 90.1606 145.322C90.1366 145.755 90.1185 146.189 90.1064 146.623C90.0944 147.056 90.0824 147.49 90.0703 147.923ZM86.439 146.406C86.439 146.586 86.4871 146.749 86.5835 146.894C86.6919 147.026 86.8244 147.146 86.981 147.255C87.1496 147.363 87.3363 147.46 87.541 147.544C87.7578 147.616 87.9806 147.676 88.2095 147.725C88.1974 147.315 88.1854 146.918 88.1733 146.532C88.1733 146.147 88.1733 145.761 88.1733 145.376C87.9565 145.4 87.7458 145.442 87.541 145.502C87.3363 145.551 87.1496 145.617 86.981 145.701C86.8244 145.773 86.6919 145.87 86.5835 145.99C86.4871 146.111 86.439 146.249 86.439 146.406ZM114.117 132.531C114.117 132.651 114.099 132.76 114.062 132.856C114.038 132.94 114.008 133.031 113.972 133.127C113.767 133.609 113.551 134.084 113.322 134.554C113.093 135.012 112.912 135.5 112.78 136.018C112.334 137.824 111.997 139.649 111.768 141.492C111.551 143.334 111.407 145.189 111.334 147.056C112.117 147.225 112.816 147.502 113.43 147.887C114.056 148.273 114.665 148.73 115.255 149.26C116.399 148.778 117.435 148.176 118.362 147.454C119.302 146.731 120.103 145.9 120.765 144.96C121.428 144.021 121.939 142.979 122.301 141.835C122.662 140.691 122.843 139.468 122.843 138.167C122.843 137.445 122.734 136.71 122.518 135.963C122.313 135.205 122.018 134.47 121.632 133.759C121.259 133.049 120.807 132.38 120.277 131.754C119.759 131.128 119.181 130.586 118.543 130.128C117.905 129.658 117.218 129.291 116.483 129.026C115.761 128.749 115.008 128.61 114.225 128.61C113.478 128.61 112.701 128.749 111.895 129.026C111.1 129.303 110.371 129.694 109.708 130.2C109.046 130.694 108.504 131.29 108.083 131.989C107.661 132.687 107.45 133.452 107.45 134.283C107.45 134.608 107.486 134.903 107.559 135.168C107.643 135.421 107.727 135.656 107.812 135.873C107.908 136.09 107.992 136.295 108.064 136.487C108.149 136.668 108.191 136.855 108.191 137.047C108.191 137.397 108.07 137.692 107.83 137.933C107.601 138.161 107.318 138.276 106.98 138.276C106.667 138.276 106.42 138.192 106.24 138.023C106.059 137.854 105.915 137.644 105.806 137.391C105.71 137.138 105.644 136.873 105.607 136.596C105.583 136.307 105.571 136.054 105.571 135.837C105.571 134.777 105.824 133.819 106.33 132.964C106.836 132.109 107.486 131.338 108.281 130.652C108.787 130.218 109.293 129.839 109.799 129.514C110.317 129.188 110.847 128.911 111.389 128.683C111.943 128.454 112.515 128.285 113.105 128.177C113.695 128.056 114.327 127.996 115.002 127.996C115.965 127.996 116.893 128.117 117.784 128.357C118.688 128.598 119.531 128.942 120.313 129.387C121.108 129.833 121.831 130.369 122.481 130.995C123.144 131.621 123.71 132.32 124.18 133.091C124.649 133.862 125.011 134.699 125.264 135.602C125.529 136.493 125.661 137.433 125.661 138.42C125.661 139.878 125.396 141.221 124.866 142.449C124.348 143.678 123.644 144.78 122.752 145.755C121.861 146.719 120.825 147.556 119.645 148.267C118.465 148.965 117.224 149.513 115.923 149.911C116.056 150.043 116.182 150.17 116.303 150.29C116.435 150.41 116.568 150.537 116.7 150.669C117.423 151.38 118.139 152.133 118.85 152.928C119.573 153.723 120.313 154.512 121.072 155.294C121.831 156.077 122.614 156.824 123.421 157.535C124.228 158.257 125.083 158.89 125.986 159.432C126.89 159.986 127.847 160.425 128.859 160.75C129.883 161.076 130.979 161.238 132.147 161.238C132.352 161.238 132.544 161.226 132.725 161.202C132.918 161.19 133.117 161.154 133.321 161.094L133.412 161.455C132.882 161.732 132.322 161.931 131.731 162.051C131.141 162.172 130.539 162.232 129.925 162.232C128.648 162.232 127.486 162.099 126.438 161.834C125.39 161.582 124.421 161.22 123.529 160.75C122.638 160.281 121.813 159.715 121.054 159.052C120.295 158.402 119.567 157.685 118.868 156.902C118.17 156.119 117.483 155.282 116.809 154.391C116.146 153.512 115.46 152.603 114.749 151.663C114.592 151.458 114.436 151.254 114.279 151.049C114.135 150.832 113.99 150.621 113.846 150.417C113.412 150.489 112.979 150.549 112.545 150.597C112.123 150.633 111.702 150.657 111.28 150.669C111.28 152.139 111.316 153.59 111.389 155.023C111.461 156.457 111.545 157.866 111.642 159.251L111.298 159.359C110.805 158.083 110.425 156.686 110.16 155.168C109.907 153.65 109.715 152.121 109.582 150.579C109.269 150.531 108.962 150.465 108.661 150.38C108.36 150.296 108.083 150.182 107.83 150.037C107.589 149.881 107.39 149.694 107.233 149.477C107.089 149.248 107.017 148.977 107.017 148.664C107.017 148.375 107.089 148.128 107.233 147.923C107.378 147.707 107.565 147.532 107.793 147.399C108.034 147.255 108.293 147.146 108.57 147.074C108.847 146.99 109.124 146.936 109.401 146.912C109.389 146.574 109.383 146.243 109.383 145.918C109.383 145.581 109.383 145.256 109.383 144.942C109.383 144.449 109.383 143.834 109.383 143.1C109.395 142.365 109.425 141.582 109.474 140.751C109.534 139.92 109.624 139.077 109.745 138.222C109.865 137.354 110.028 136.542 110.232 135.783C110.449 135.024 110.72 134.349 111.045 133.759C111.383 133.169 111.792 132.736 112.274 132.458C112.455 132.35 112.653 132.254 112.87 132.169C113.087 132.073 113.316 132.025 113.557 132.025C113.93 132.025 114.117 132.194 114.117 132.531ZM107.649 148.736C107.649 148.905 107.703 149.056 107.812 149.188C107.92 149.32 108.064 149.441 108.245 149.549C108.426 149.646 108.625 149.73 108.841 149.802C109.07 149.875 109.305 149.935 109.546 149.983C109.522 149.573 109.498 149.17 109.474 148.772C109.462 148.363 109.444 147.959 109.419 147.562C109.215 147.562 109.004 147.574 108.787 147.598C108.582 147.622 108.396 147.676 108.227 147.761C108.058 147.845 107.92 147.965 107.812 148.122C107.703 148.267 107.649 148.471 107.649 148.736ZM111.28 150.146C111.654 150.146 112.021 150.121 112.382 150.073C112.744 150.025 113.099 149.959 113.448 149.875C113.147 149.465 112.822 149.092 112.473 148.754C112.135 148.405 111.744 148.128 111.298 147.923C111.286 148.297 111.28 148.67 111.28 149.043C111.28 149.405 111.28 149.772 111.28 150.146ZM135.399 158.655C135.399 159.076 135.188 159.287 134.767 159.287C134.502 159.287 134.243 159.221 133.99 159.088C133.749 158.956 133.526 158.823 133.321 158.691C133.261 158.655 133.207 158.613 133.159 158.564C133.123 158.528 133.08 158.486 133.032 158.438C132.261 158.534 131.533 158.613 130.846 158.673C130.16 158.733 129.576 158.763 129.094 158.763C128.769 158.763 128.413 158.745 128.028 158.709C127.642 158.685 127.281 158.607 126.944 158.474C126.595 158.354 126.306 158.167 126.077 157.914C125.848 157.661 125.733 157.306 125.733 156.848C125.733 156.511 125.842 156.198 126.059 155.909C126.263 155.62 126.552 155.475 126.926 155.475C126.962 155.475 127.004 155.481 127.052 155.493C127.1 155.505 127.143 155.511 127.179 155.511C127.938 155.68 128.732 155.818 129.563 155.927C130.395 156.047 131.232 156.144 132.075 156.216C131.966 155.71 131.888 155.18 131.84 154.626C131.792 154.084 131.756 153.554 131.731 153.036C131.719 152.518 131.713 152.036 131.713 151.591C131.725 151.145 131.731 150.778 131.731 150.489C131.731 149.61 131.743 148.646 131.768 147.598C131.792 146.538 131.828 145.436 131.876 144.292C131.936 143.136 132.008 141.955 132.093 140.751C132.189 139.535 132.298 138.33 132.418 137.138C132.55 135.933 132.701 134.765 132.87 133.633C133.05 132.489 133.255 131.411 133.484 130.399C132.46 130.543 131.466 130.718 130.503 130.923C129.539 131.116 128.654 131.332 127.847 131.573C127.775 131.597 127.709 131.609 127.648 131.609C127.588 131.609 127.528 131.609 127.468 131.609C127.287 131.609 127.125 131.567 126.98 131.483C126.823 131.399 126.697 131.29 126.601 131.158C126.504 131.025 126.432 130.875 126.384 130.706C126.324 130.537 126.293 130.369 126.293 130.2C126.293 129.839 126.384 129.538 126.564 129.297C126.733 129.056 126.956 128.857 127.233 128.701C127.51 128.544 127.823 128.43 128.172 128.357C128.534 128.285 128.895 128.231 129.256 128.195C129.618 128.159 129.961 128.141 130.286 128.141C130.623 128.141 130.918 128.141 131.171 128.141C131.545 128.141 131.978 128.153 132.472 128.177C132.966 128.189 133.49 128.219 134.044 128.267C134.104 128.05 134.17 127.846 134.243 127.653C134.315 127.448 134.387 127.249 134.459 127.057L134.839 127.219C134.791 127.46 134.736 127.827 134.676 128.321C135.303 128.382 135.941 128.454 136.591 128.538C137.242 128.61 137.862 128.707 138.452 128.827C139.042 128.948 139.584 129.086 140.078 129.243C140.572 129.387 140.981 129.55 141.307 129.73L141.126 130.02C140.825 129.983 140.518 129.965 140.205 129.965C139.903 129.953 139.608 129.947 139.319 129.947C138.597 129.947 137.826 129.977 137.007 130.038C136.188 130.098 135.345 130.176 134.478 130.272C134.417 131.079 134.357 131.989 134.297 133C134.237 134 134.182 135.072 134.134 136.216C134.098 137.361 134.068 138.547 134.044 139.775C134.02 141.004 134.008 142.244 134.008 143.497C134.008 144.738 134.02 145.966 134.044 147.183C134.068 148.399 134.11 149.561 134.17 150.669C134.243 151.778 134.327 152.813 134.423 153.777C134.532 154.752 134.658 155.614 134.803 156.36C135.128 156.372 135.447 156.378 135.76 156.378C136.085 156.39 136.405 156.396 136.718 156.396C137.356 156.396 138 156.378 138.651 156.342C139.301 156.318 139.94 156.24 140.566 156.107L140.747 156.396C140.494 156.577 140.168 156.746 139.771 156.902C139.386 157.059 138.952 157.209 138.47 157.354C138 157.499 137.489 157.631 136.935 157.751C136.393 157.884 135.839 157.998 135.272 158.095C135.309 158.191 135.339 158.281 135.363 158.366C135.387 158.462 135.399 158.558 135.399 158.655ZM159.048 133.163C159.048 134.151 158.801 135.072 158.307 135.927C157.825 136.782 157.193 137.523 156.41 138.149C155.639 138.776 154.778 139.27 153.827 139.631C152.875 139.98 151.936 140.143 151.008 140.119H150.719V139.793C151.514 139.625 152.261 139.336 152.959 138.926C153.67 138.505 154.284 137.993 154.802 137.391C155.332 136.788 155.748 136.114 156.049 135.367C156.362 134.62 156.519 133.838 156.519 133.019C156.519 132.477 156.452 131.965 156.32 131.483C156.187 131.001 155.983 130.586 155.706 130.236C155.429 129.887 155.073 129.61 154.64 129.405C154.218 129.201 153.712 129.098 153.122 129.098C152.279 129.098 151.424 129.225 150.557 129.478C149.689 129.73 148.852 130.086 148.045 130.543C147.238 131.001 146.48 131.543 145.769 132.169C145.07 132.796 144.456 133.482 143.926 134.229C143.408 134.976 142.999 135.771 142.698 136.614C142.397 137.457 142.246 138.318 142.246 139.197C142.246 140.137 142.379 140.95 142.644 141.636C142.921 142.311 143.288 142.907 143.746 143.425C144.215 143.931 144.757 144.364 145.372 144.726C145.986 145.087 146.642 145.418 147.341 145.719C148.039 146.008 148.75 146.279 149.473 146.532C150.207 146.785 150.924 147.056 151.623 147.345C152.321 147.634 152.978 147.959 153.592 148.321C154.206 148.67 154.742 149.092 155.2 149.585C155.669 150.067 156.037 150.645 156.302 151.32C156.579 151.982 156.717 152.765 156.717 153.668C156.717 154.656 156.513 155.535 156.103 156.306C155.706 157.077 155.176 157.721 154.513 158.239C153.851 158.769 153.092 159.167 152.237 159.432C151.382 159.709 150.502 159.847 149.599 159.847C148.624 159.847 147.72 159.679 146.889 159.341C146.058 159.016 145.311 158.57 144.649 158.004C143.986 157.45 143.408 156.806 142.915 156.071C142.421 155.349 142.023 154.596 141.722 153.813L141.993 153.668C142.354 154.307 142.77 154.933 143.24 155.547C143.709 156.174 144.239 156.728 144.83 157.209C145.42 157.703 146.07 158.101 146.781 158.402C147.503 158.703 148.286 158.854 149.129 158.854C149.816 158.854 150.454 158.757 151.044 158.564C151.635 158.372 152.146 158.095 152.58 157.733C153.014 157.372 153.351 156.926 153.592 156.396C153.845 155.867 153.971 155.264 153.971 154.59C153.971 153.602 153.76 152.789 153.339 152.151C152.917 151.513 152.363 150.971 151.677 150.525C150.99 150.079 150.207 149.7 149.328 149.387C148.449 149.074 147.546 148.76 146.618 148.447C145.703 148.122 144.806 147.761 143.926 147.363C143.047 146.954 142.264 146.442 141.578 145.828C140.891 145.213 140.337 144.455 139.916 143.551C139.494 142.636 139.283 141.516 139.283 140.191C139.283 138.986 139.47 137.854 139.843 136.794C140.217 135.722 140.729 134.741 141.379 133.85C142.041 132.958 142.818 132.163 143.709 131.465C144.601 130.754 145.558 130.152 146.582 129.658C147.618 129.164 148.696 128.791 149.816 128.538C150.936 128.273 152.062 128.141 153.194 128.141C154.001 128.141 154.76 128.237 155.471 128.43C156.193 128.622 156.814 128.924 157.332 129.333C157.861 129.73 158.277 130.248 158.578 130.887C158.891 131.525 159.048 132.284 159.048 133.163ZM177.458 133.579C177.458 133.856 177.409 134.187 177.313 134.572C177.217 134.946 177.072 135.313 176.879 135.674C176.699 136.024 176.47 136.325 176.193 136.578C175.916 136.819 175.597 136.939 175.235 136.939C175.043 136.939 174.916 136.873 174.856 136.74C174.808 136.608 174.784 136.463 174.784 136.307C174.784 135.801 174.826 135.301 174.91 134.807C174.994 134.313 175.037 133.801 175.037 133.271C175.037 132.754 174.994 132.248 174.91 131.754C174.826 131.248 174.669 130.802 174.44 130.417C174.224 130.032 173.91 129.724 173.501 129.496C173.104 129.255 172.592 129.134 171.965 129.134C171.062 129.134 170.225 129.345 169.454 129.767C168.695 130.188 167.997 130.76 167.358 131.483C166.732 132.206 166.16 133.049 165.642 134.012C165.136 134.964 164.685 135.975 164.287 137.047C163.89 138.119 163.546 139.215 163.257 140.335C162.98 141.456 162.745 142.54 162.553 143.587C162.372 144.635 162.24 145.617 162.155 146.532C162.071 147.436 162.029 148.212 162.029 148.863C162.029 149.441 162.053 150.055 162.101 150.706C162.161 151.356 162.258 152 162.39 152.639C162.535 153.265 162.721 153.867 162.95 154.445C163.179 155.023 163.468 155.529 163.817 155.963C164.167 156.409 164.582 156.758 165.064 157.011C165.558 157.276 166.13 157.408 166.78 157.408C167.732 157.408 168.575 157.222 169.31 156.848C170.044 156.475 170.695 155.975 171.261 155.349C171.839 154.722 172.333 154 172.742 153.181C173.164 152.374 173.531 151.537 173.844 150.669C173.784 150.248 173.736 149.826 173.7 149.405C173.664 148.971 173.646 148.544 173.646 148.122C173.646 147.833 173.658 147.478 173.682 147.056C173.706 146.623 173.748 146.165 173.808 145.683C173.868 145.189 173.953 144.695 174.061 144.202C174.169 143.696 174.302 143.22 174.458 142.774C174.615 142.317 174.802 141.919 175.019 141.582C175.235 141.233 175.488 140.968 175.777 140.787C175.97 140.679 176.163 140.582 176.355 140.498C176.56 140.402 176.777 140.354 177.006 140.354C177.174 140.354 177.307 140.39 177.403 140.462C177.512 140.534 177.566 140.655 177.566 140.823C177.566 140.932 177.548 141.04 177.512 141.148C177.488 141.245 177.451 141.347 177.403 141.456C176.958 142.612 176.632 143.798 176.428 145.015C176.223 146.231 176.121 147.46 176.121 148.7C176.121 149.134 176.145 149.658 176.193 150.272C176.253 150.886 176.331 151.537 176.428 152.223C176.524 152.91 176.645 153.614 176.789 154.337C176.934 155.06 177.096 155.746 177.277 156.396C177.47 157.047 177.674 157.637 177.891 158.167C178.12 158.697 178.367 159.118 178.632 159.432L178.307 159.54C177.247 158.468 176.355 157.258 175.633 155.909C174.922 154.572 174.398 153.169 174.061 151.699C173.495 153.036 172.808 154.259 172.001 155.367C171.64 155.836 171.237 156.264 170.791 156.649C170.345 157.047 169.87 157.39 169.364 157.679C168.858 157.968 168.322 158.191 167.756 158.348C167.202 158.504 166.618 158.583 166.003 158.583C165.112 158.583 164.323 158.426 163.637 158.113C162.962 157.8 162.378 157.384 161.884 156.866C161.39 156.348 160.975 155.752 160.638 155.078C160.312 154.403 160.054 153.705 159.861 152.982C159.668 152.247 159.53 151.513 159.445 150.778C159.361 150.043 159.319 149.363 159.319 148.736C159.319 147.339 159.445 145.864 159.698 144.31C159.963 142.756 160.343 141.221 160.836 139.703C161.33 138.174 161.938 136.716 162.661 135.331C163.396 133.934 164.233 132.705 165.172 131.646C166.112 130.586 167.154 129.743 168.298 129.116C169.442 128.49 170.677 128.177 172.001 128.177C172.808 128.177 173.543 128.309 174.206 128.574C174.88 128.827 175.458 129.194 175.94 129.676C176.422 130.146 176.795 130.712 177.06 131.375C177.325 132.037 177.458 132.772 177.458 133.579Z" fill="black"/>
<path d="M73.3 134.16V133.96H78.24V134.16H77.14C76.42 136.12 75.2267 137.88 73.56 139.44C72.7467 140.2 71.7933 140.82 70.7 141.3C69.6067 141.767 68.48 142 67.32 142C66.2133 142 65.2 141.787 64.28 141.36C63.7467 141.12 63.2733 140.813 62.86 140.44C62.46 140.053 62.1267 139.54 61.86 138.9C61.5933 138.247 61.46 137.5 61.46 136.66C61.46 135.02 61.96 133.64 62.96 132.52C63.9733 131.387 65.12 130.82 66.4 130.82C68.72 130.82 69.92 131.853 70 133.92L73.32 131.3L73.46 131.42L63.54 139.22C63.8733 140.02 64.3467 140.653 64.96 141.12C65.5867 141.573 66.3667 141.8 67.3 141.8C68.2467 141.8 69.1867 141.567 70.12 141.1C71.0667 140.62 71.8867 140 72.58 139.24C73.98 137.693 74.9667 136 75.54 134.16H73.3ZM68.42 135.18C68.4067 133.66 68.2533 132.587 67.96 131.96C67.68 131.333 67.2 131.02 66.52 131.02C65.8533 131.02 65.2867 131.2 64.82 131.56C64.3667 131.907 64.0133 132.367 63.76 132.94C63.2933 134.047 63.06 135.253 63.06 136.56L63.1 137.44C63.1667 138.04 63.2867 138.587 63.46 139.08L68.42 135.18Z" fill="black"/>
</g>
<defs>
<filter id="filter0_dd_48_44" x="48.9" y="70.7" width="140.732" height="106.532" filterUnits="userSpaceOnUse" color-interpolation-filters="sRGB">
<feFlood flood-opacity="0" result="BackgroundImageFix"/>
<feColorMatrix in="SourceAlpha" type="matrix" values="0 0 0 0 0 0 0 0 0 0 0 0 0 0 0 0 0 0 127 0" result="hardAlpha"/>
<feOffset dy="1"/>
<feGaussianBlur stdDeviation="1.5"/>
<feColorMatrix type="matrix" values="0 0 0 0 0 0 0 0 0 0 0 0 0 0 0 0 0 0 0.3 0"/>
<feBlend mode="normal" in2="BackgroundImageFix" result="effect1_dropShadow_48_44"/>
<feColorMatrix in="SourceAlpha" type="matrix" values="0 0 0 0 0 0 0 0 0 0 0 0 0 0 0 0 0 0 127 0" result="hardAlpha"/>
<feMorphology radius="3" operator="dilate" in="SourceAlpha" result="effect2_dropShadow_48_44"/>
<feOffset dy="4"/>
<feGaussianBlur stdDeviation="4"/>
<feColorMatrix type="matrix" values="0 0 0 0 0 0 0 0 0 0 0 0 0 0 0 0 0 0 0.15 0"/>
<feBlend mode="normal" in2="effect1_dropShadow_48_44" result="effect2_dropShadow_48_44"/>
<feBlend mode="normal" in="SourceGraphic" in2="effect2_dropShadow_48_44" result="shape"/>
</filter>
</defs>
</svg>
